o cone
v 0.050641231 -0.019446654 0.000000000
v 0.050432600 -0.015199914 0.000000000
v 0.049808722 -0.010994070 0.000000000
v 0.048775606 -0.006869630 0.000000000
v 0.047343194 -0.002866314 0.000000000
v 0.045525290 0.000977325 0.000000000
v 0.043339394 0.004624270 0.000000000
v 0.040806562 0.008039398 0.000000000
v 0.037951186 0.011189821 0.000000000
v 0.034800764 0.014045198 0.000000000
v 0.031385634 0.016578030 0.000000000
v 0.027738690 0.018763924 0.000000000
v 0.023895051 0.020581830 0.000000000
v 0.019891735 0.022014240 0.000000000
v 0.015767295 0.023047358 0.000000000
v 0.011561451 0.023671236 0.000000000
v 0.007314710 0.023879865 0.000000000
v 0.003067968 0.023671236 0.000000000
v -0.001137875 0.023047358 0.000000000
v -0.005262315 0.022014240 0.000000000
v -0.009265631 0.020581830 0.000000000
v -0.013109270 0.018763924 0.000000000
v -0.016756214 0.016578030 0.000000000
v -0.020171344 0.014045198 0.000000000
v -0.023321766 0.011189821 0.000000000
v -0.026177144 0.008039398 0.000000000
v -0.028709976 0.004624270 0.000000000
v -0.030895870 0.000977325 0.000000000
v -0.032713775 -0.002866314 0.000000000
v -0.034146186 -0.006869630 0.000000000
v -0.035179302 -0.010994070 0.000000000
v -0.035803180 -0.015199914 0.000000000
v -0.036011811 -0.019446654 0.000000000
v -0.035803180 -0.023693396 0.000000000
v -0.035179302 -0.027899239 0.000000000
v -0.034146186 -0.032023679 0.000000000
v -0.032713775 -0.036026996 0.000000000
v -0.030895870 -0.039870635 0.000000000
v -0.028709976 -0.043517578 0.000000000
v -0.026177144 -0.046932708 0.000000000
v -0.023321766 -0.050083131 0.000000000
v -0.020171344 -0.052938510 0.000000000
v -0.016756214 -0.055471342 0.000000000
v -0.013109270 -0.057657234 0.000000000
v -0.009265631 -0.059475139 0.000000000
v -0.005262315 -0.060907550 0.000000000
v -0.001137875 -0.061940670 0.000000000
v 0.003067968 -0.062564544 0.000000000
v 0.007314710 -0.062773176 0.000000000
v 0.011561451 -0.062564544 0.000000000
v 0.015767295 -0.061940670 0.000000000
v 0.019891735 -0.060907550 0.000000000
v 0.023895051 -0.059475139 0.000000000
v 0.027738690 -0.057657234 0.000000000
v 0.031385634 -0.055471342 0.000000000
v 0.034800764 -0.052938510 0.000000000
v 0.037951186 -0.050083131 0.000000000
v 0.040806562 -0.046932708 0.000000000
v 0.043339394 -0.043517578 0.000000000
v 0.045525290 -0.039870635 0.000000000
v 0.047343194 -0.036026996 0.000000000
v 0.048775606 -0.032023679 0.000000000
v 0.049808722 -0.027899239 0.000000000
v 0.050432600 -0.023693396 0.000000000
v 0.007314710 -0.019446654 0.000000000
v 0.007314710 -0.019446654 0.087775558
f 65 2 1
f 1 2 66
f 65 3 2
f 2 3 66
f 65 4 3
f 3 4 66
f 65 5 4
f 4 5 66
f 65 6 5
f 5 6 66
f 65 7 6
f 6 7 66
f 65 8 7
f 7 8 66
f 65 9 8
f 8 9 66
f 65 10 9
f 9 10 66
f 65 11 10
f 10 11 66
f 65 12 11
f 11 12 66
f 65 13 12
f 12 13 66
f 65 14 13
f 13 14 66
f 65 15 14
f 14 15 66
f 65 16 15
f 15 16 66
f 65 17 16
f 16 17 66
f 65 18 17
f 17 18 66
f 65 19 18
f 18 19 66
f 65 20 19
f 19 20 66
f 65 21 20
f 20 21 66
f 65 22 21
f 21 22 66
f 65 23 22
f 22 23 66
f 65 24 23
f 23 24 66
f 65 25 24
f 24 25 66
f 65 26 25
f 25 26 66
f 65 27 26
f 26 27 66
f 65 28 27
f 27 28 66
f 65 29 28
f 28 29 66
f 65 30 29
f 29 30 66
f 65 31 30
f 30 31 66
f 65 32 31
f 31 32 66
f 65 33 32
f 32 33 66
f 65 34 33
f 33 34 66
f 65 35 34
f 34 35 66
f 65 36 35
f 35 36 66
f 65 37 36
f 36 37 66
f 65 38 37
f 37 38 66
f 65 39 38
f 38 39 66
f 65 40 39
f 39 40 66
f 65 41 40
f 40 41 66
f 65 42 41
f 41 42 66
f 65 43 42
f 42 43 66
f 65 44 43
f 43 44 66
f 65 45 44
f 44 45 66
f 65 46 45
f 45 46 66
f 65 47 46
f 46 47 66
f 65 48 47
f 47 48 66
f 65 49 48
f 48 49 66
f 65 50 49
f 49 50 66
f 65 51 50
f 50 51 66
f 65 52 51
f 51 52 66
f 65 53 52
f 52 53 66
f 65 54 53
f 53 54 66
f 65 55 54
f 54 55 66
f 65 56 55
f 55 56 66
f 65 57 56
f 56 57 66
f 65 58 57
f 57 58 66
f 65 59 58
f 58 59 66
f 65 60 59
f 59 60 66
f 65 61 60
f 60 61 66
f 65 62 61
f 61 62 66
f 65 63 62
f 62 63 66
f 65 64 63
f 63 64 66
f 65 1 64
f 64 1 66
