o i_beam
v -0.045186836 -0.083169460 0.000000000
v 0.085219361 0.041190650 0.000000000
v 0.045186836 0.083169460 0.000000000
v -0.085219361 -0.041190650 0.000000000
v -0.045186836 -0.083169460 0.009930002
v 0.085219361 0.041190650 0.009930002
v 0.045186836 0.083169460 0.009930002
v -0.085219361 -0.041190650 0.009930002
v -0.061939217 -0.065602615 0.009930002
v 0.068466976 0.058757491 0.009930002
v 0.061939217 0.065602615 0.009930002
v -0.068466976 -0.058757491 0.009930002
v -0.061939217 -0.065602615 0.070509762
v 0.068466976 0.058757491 0.070509762
v 0.061939217 0.065602615 0.070509762
v -0.068466976 -0.058757491 0.070509762
v -0.045186836 -0.083169460 0.070509762
v 0.085219361 0.041190650 0.070509762
v 0.045186836 0.083169460 0.070509762
v -0.085219361 -0.041190650 0.070509762
v -0.045186836 -0.083169460 0.080439761
v 0.085219361 0.041190650 0.080439761
v 0.045186836 0.083169460 0.080439761
v -0.085219361 -0.041190650 0.080439761
f 1 3 2
f 1 4 3
f 5 6 7
f 5 7 8
f 1 2 6
f 1 6 5
f 2 3 7
f 2 7 6
f 3 4 8
f 3 8 7
f 4 1 5
f 4 5 8
f 9 11 10
f 9 12 11
f 13 14 15
f 13 15 16
f 9 10 14
f 9 14 13
f 10 11 15
f 10 15 14
f 11 12 16
f 11 16 15
f 12 9 13
f 12 13 16
f 17 19 18
f 17 20 19
f 21 22 23
f 21 23 24
f 17 18 22
f 17 22 21
f 18 19 23
f 18 23 22
f 19 20 24
f 19 24 23
f 20 17 21
f 20 21 24
