o cone
v 0.000936117 -0.009418611 0.000000000
v 0.000813217 -0.006916924 0.000000000
v 0.000445701 -0.004439330 0.000000000
v -0.000162893 -0.002009689 0.000000000
v -0.001006702 0.000348601 0.000000000
v -0.002077601 0.002612826 0.000000000
v -0.003365277 0.004761183 0.000000000
v -0.004857327 0.006772980 0.000000000
v -0.006539383 0.008628843 0.000000000
v -0.008395247 0.010310899 0.000000000
v -0.010407044 0.011802950 0.000000000
v -0.012555400 0.013090625 0.000000000
v -0.014819626 0.014161524 0.000000000
v -0.017177915 0.015005334 0.000000000
v -0.019607557 0.015613928 0.000000000
v -0.022085151 0.015981443 0.000000000
v -0.024586838 0.016104344 0.000000000
v -0.027088525 0.015981443 0.000000000
v -0.029566120 0.015613928 0.000000000
v -0.031995762 0.015005334 0.000000000
v -0.034354050 0.014161524 0.000000000
v -0.036618277 0.013090625 0.000000000
v -0.038766634 0.011802950 0.000000000
v -0.040778428 0.010310899 0.000000000
v -0.042634293 0.008628843 0.000000000
v -0.044316348 0.006772980 0.000000000
v -0.045808401 0.004761183 0.000000000
v -0.047096074 0.002612826 0.000000000
v -0.048166975 0.000348601 0.000000000
v -0.049010783 -0.002009689 0.000000000
v -0.049619377 -0.004439330 0.000000000
v -0.049986891 -0.006916924 0.000000000
v -0.050109793 -0.009418611 0.000000000
v -0.049986891 -0.011920298 0.000000000
v -0.049619377 -0.014397893 0.000000000
v -0.049010783 -0.016827535 0.000000000
v -0.048166975 -0.019185824 0.000000000
v -0.047096074 -0.021450048 0.000000000
v -0.045808401 -0.023598405 0.000000000
v -0.044316348 -0.025610203 0.000000000
v -0.042634293 -0.027466066 0.000000000
v -0.040778428 -0.029148122 0.000000000
v -0.038766634 -0.030640174 0.000000000
v -0.036618277 -0.031927846 0.000000000
v -0.034354050 -0.032998748 0.000000000
v -0.031995762 -0.033842556 0.000000000
v -0.029566120 -0.034451149 0.000000000
v -0.027088525 -0.034818668 0.000000000
v -0.024586838 -0.034941565 0.000000000
v -0.022085151 -0.034818668 0.000000000
v -0.019607557 -0.034451149 0.000000000
v -0.017177915 -0.033842556 0.000000000
v -0.014819626 -0.032998748 0.000000000
v -0.012555400 -0.031927846 0.000000000
v -0.010407044 -0.030640174 0.000000000
v -0.008395247 -0.029148122 0.000000000
v -0.006539383 -0.027466066 0.000000000
v -0.004857327 -0.025610203 0.000000000
v -0.003365277 -0.023598405 0.000000000
v -0.002077601 -0.021450048 0.000000000
v -0.001006702 -0.019185824 0.000000000
v -0.000162893 -0.016827535 0.000000000
v 0.000445701 -0.014397893 0.000000000
v 0.000813217 -0.011920298 0.000000000
v -0.024586838 -0.009418611 0.000000000
v -0.024586838 -0.009418611 0.124145649
f 65 2 1
f 1 2 66
f 65 3 2
f 2 3 66
f 65 4 3
f 3 4 66
f 65 5 4
f 4 5 66
f 65 6 5
f 5 6 66
f 65 7 6
f 6 7 66
f 65 8 7
f 7 8 66
f 65 9 8
f 8 9 66
f 65 10 9
f 9 10 66
f 65 11 10
f 10 11 66
f 65 12 11
f 11 12 66
f 65 13 12
f 12 13 66
f 65 14 13
f 13 14 66
f 65 15 14
f 14 15 66
f 65 16 15
f 15 16 66
f 65 17 16
f 16 17 66
f 65 18 17
f 17 18 66
f 65 19 18
f 18 19 66
f 65 20 19
f 19 20 66
f 65 21 20
f 20 21 66
f 65 22 21
f 21 22 66
f 65 23 22
f 22 23 66
f 65 24 23
f 23 24 66
f 65 25 24
f 24 25 66
f 65 26 25
f 25 26 66
f 65 27 26
f 26 27 66
f 65 28 27
f 27 28 66
f 65 29 28
f 28 29 66
f 65 30 29
f 29 30 66
f 65 31 30
f 30 31 66
f 65 32 31
f 31 32 66
f 65 33 32
f 32 33 66
f 65 34 33
f 33 34 66
f 65 35 34
f 34 35 66
f 65 36 35
f 35 36 66
f 65 37 36
f 36 37 66
f 65 38 37
f 37 38 66
f 65 39 38
f 38 39 66
f 65 40 39
f 39 40 66
f 65 41 40
f 40 41 66
f 65 42 41
f 41 42 66
f 65 43 42
f 42 43 66
f 65 44 43
f 43 44 66
f 65 45 44
f 44 45 66
f 65 46 45
f 45 46 66
f 65 47 46
f 46 47 66
f 65 48 47
f 47 48 66
f 65 49 48
f 48 49 66
f 65 50 49
f 49 50 66
f 65 51 50
f 50 51 66
f 65 52 51
f 51 52 66
f 65 53 52
f 52 53 66
f 65 54 53
f 53 54 66
f 65 55 54
f 54 55 66
f 65 56 55
f 55 56 66
f 65 57 56
f 56 57 66
f 65 58 57
f 57 58 66
f 65 59 58
f 58 59 66
f 65 60 59
f 59 60 66
f 65 61 60
f 60 61 66
f 65 62 61
f 61 62 66
f 65 63 62
f 62 63 66
f 65 64 63
f 63 64 66
f 65 1 64
f 64 1 66
