o cylinder
v 0.083202265 -0.006285191 0.000000000
v 0.082961909 -0.001392612 0.000000000
v 0.082243152 0.003452849 0.000000000
v 0.081052914 0.008204526 0.000000000
v 0.079402670 0.012816660 0.000000000
v 0.077308297 0.017244833 0.000000000
v 0.074789979 0.021446399 0.000000000
v 0.071871959 0.025380895 0.000000000
v 0.068582341 0.029010428 0.000000000
v 0.064952806 0.032300044 0.000000000
v 0.061018310 0.035218067 0.000000000
v 0.056816746 0.037736386 0.000000000
v 0.052388571 0.039830759 0.000000000
v 0.047776438 0.041481007 0.000000000
v 0.043024760 0.042671237 0.000000000
v 0.038179301 0.043389995 0.000000000
v 0.033286721 0.043630350 0.000000000
v 0.028394142 0.043389995 0.000000000
v 0.023548683 0.042671237 0.000000000
v 0.018797005 0.041481007 0.000000000
v 0.014184871 0.039830759 0.000000000
v 0.009756697 0.037736386 0.000000000
v 0.005555132 0.035218067 0.000000000
v 0.001620636 0.032300044 0.000000000
v -0.002008897 0.029010428 0.000000000
v -0.005298515 0.025380895 0.000000000
v -0.008216536 0.021446399 0.000000000
v -0.010734857 0.017244833 0.000000000
v -0.012829226 0.012816660 0.000000000
v -0.014479475 0.008204526 0.000000000
v -0.015669707 0.003452849 0.000000000
v -0.016388465 -0.001392612 0.000000000
v -0.016628820 -0.006285191 0.000000000
v -0.016388465 -0.011177770 0.000000000
v -0.015669707 -0.016023230 0.000000000
v -0.014479475 -0.020774908 0.000000000
v -0.012829226 -0.025387041 0.000000000
v -0.010734857 -0.029815214 0.000000000
v -0.008216536 -0.034016781 0.000000000
v -0.005298515 -0.037951276 0.000000000
v -0.002008897 -0.041580811 0.000000000
v 0.001620636 -0.044870429 0.000000000
v 0.005555132 -0.047788449 0.000000000
v 0.009756697 -0.050306771 0.000000000
v 0.014184871 -0.052401140 0.000000000
v 0.018797005 -0.054051388 0.000000000
v 0.023548683 -0.055241622 0.000000000
v 0.028394142 -0.055960376 0.000000000
v 0.033286721 -0.056200735 0.000000000
v 0.038179301 -0.055960376 0.000000000
v 0.043024760 -0.055241622 0.000000000
v 0.047776438 -0.054051388 0.000000000
v 0.052388571 -0.052401140 0.000000000
v 0.056816746 -0.050306771 0.000000000
v 0.061018310 -0.047788449 0.000000000
v 0.064952806 -0.044870429 0.000000000
v 0.068582341 -0.041580811 0.000000000
v 0.071871959 -0.037951276 0.000000000
v 0.074789979 -0.034016781 0.000000000
v 0.077308297 -0.029815214 0.000000000
v 0.079402670 -0.025387041 0.000000000
v 0.081052914 -0.020774908 0.000000000
v 0.082243152 -0.016023230 0.000000000
v 0.082961909 -0.011177770 0.000000000
v 0.083202265 -0.006285191 0.062238209
v 0.082961909 -0.001392612 0.062238209
v 0.082243152 0.003452849 0.062238209
v 0.081052914 0.008204526 0.062238209
v 0.079402670 0.012816660 0.062238209
v 0.077308297 0.017244833 0.062238209
v 0.074789979 0.021446399 0.062238209
v 0.071871959 0.025380895 0.062238209
v 0.068582341 0.029010428 0.062238209
v 0.064952806 0.032300044 0.062238209
v 0.061018310 0.035218067 0.062238209
v 0.056816746 0.037736386 0.062238209
v 0.052388571 0.039830759 0.062238209
v 0.047776438 0.041481007 0.062238209
v 0.043024760 0.042671237 0.062238209
v 0.038179301 0.043389995 0.062238209
v 0.033286721 0.043630350 0.062238209
v 0.028394142 0.043389995 0.062238209
v 0.023548683 0.042671237 0.062238209
v 0.018797005 0.041481007 0.062238209
v 0.014184871 0.039830759 0.062238209
v 0.009756697 0.037736386 0.062238209
v 0.005555132 0.035218067 0.062238209
v 0.001620636 0.032300044 0.062238209
v -0.002008897 0.029010428 0.062238209
v -0.005298515 0.025380895 0.062238209
v -0.008216536 0.021446399 0.062238209
v -0.010734857 0.017244833 0.062238209
v -0.012829226 0.012816660 0.062238209
v -0.014479475 0.008204526 0.062238209
v -0.015669707 0.003452849 0.062238209
v -0.016388465 -0.001392612 0.062238209
v -0.016628820 -0.006285191 0.062238209
v -0.016388465 -0.011177770 0.062238209
v -0.015669707 -0.016023230 0.062238209
v -0.014479475 -0.020774908 0.062238209
v -0.012829226 -0.025387041 0.062238209
v -0.010734857 -0.029815214 0.062238209
v -0.008216536 -0.034016781 0.062238209
v -0.005298515 -0.037951276 0.062238209
v -0.002008897 -0.041580811 0.062238209
v 0.001620636 -0.044870429 0.062238209
v 0.005555132 -0.047788449 0.062238209
v 0.009756697 -0.050306771 0.062238209
v 0.014184871 -0.052401140 0.062238209
v 0.018797005 -0.054051388 0.062238209
v 0.023548683 -0.055241622 0.062238209
v 0.028394142 -0.055960376 0.062238209
v 0.033286721 -0.056200735 0.062238209
v 0.038179301 -0.055960376 0.062238209
v 0.043024760 -0.055241622 0.062238209
v 0.047776438 -0.054051388 0.062238209
v 0.052388571 -0.052401140 0.062238209
v 0.056816746 -0.050306771 0.062238209
v 0.061018310 -0.047788449 0.062238209
v 0.064952806 -0.044870429 0.062238209
v 0.068582341 -0.041580811 0.062238209
v 0.071871959 -0.037951276 0.062238209
v 0.074789979 -0.034016781 0.062238209
v 0.077308297 -0.029815214 0.062238209
v 0.079402670 -0.025387041 0.062238209
v 0.081052914 -0.020774908 0.062238209
v 0.082243152 -0.016023230 0.062238209
v 0.082961909 -0.011177770 0.062238209
v 0.033286721 -0.006285191 0.000000000
v 0.033286721 -0.006285191 0.062238209
f 1 2 66
f 1 66 65
f 129 2 1
f 130 65 66
f 2 3 67
f 2 67 66
f 129 3 2
f 130 66 67
f 3 4 68
f 3 68 67
f 129 4 3
f 130 67 68
f 4 5 69
f 4 69 68
f 129 5 4
f 130 68 69
f 5 6 70
f 5 70 69
f 129 6 5
f 130 69 70
f 6 7 71
f 6 71 70
f 129 7 6
f 130 70 71
f 7 8 72
f 7 72 71
f 129 8 7
f 130 71 72
f 8 9 73
f 8 73 72
f 129 9 8
f 130 72 73
f 9 10 74
f 9 74 73
f 129 10 9
f 130 73 74
f 10 11 75
f 10 75 74
f 129 11 10
f 130 74 75
f 11 12 76
f 11 76 75
f 129 12 11
f 130 75 76
f 12 13 77
f 12 77 76
f 129 13 12
f 130 76 77
f 13 14 78
f 13 78 77
f 129 14 13
f 130 77 78
f 14 15 79
f 14 79 78
f 129 15 14
f 130 78 79
f 15 16 80
f 15 80 79
f 129 16 15
f 130 79 80
f 16 17 81
f 16 81 80
f 129 17 16
f 130 80 81
f 17 18 82
f 17 82 81
f 129 18 17
f 130 81 82
f 18 19 83
f 18 83 82
f 129 19 18
f 130 82 83
f 19 20 84
f 19 84 83
f 129 20 19
f 130 83 84
f 20 21 85
f 20 85 84
f 129 21 20
f 130 84 85
f 21 22 86
f 21 86 85
f 129 22 21
f 130 85 86
f 22 23 87
f 22 87 86
f 129 23 22
f 130 86 87
f 23 24 88
f 23 88 87
f 129 24 23
f 130 87 88
f 24 25 89
f 24 89 88
f 129 25 24
f 130 88 89
f 25 26 90
f 25 90 89
f 129 26 25
f 130 89 90
f 26 27 91
f 26 91 90
f 129 27 26
f 130 90 91
f 27 28 92
f 27 92 91
f 129 28 27
f 130 91 92
f 28 29 93
f 28 93 92
f 129 29 28
f 130 92 93
f 29 30 94
f 29 94 93
f 129 30 29
f 130 93 94
f 30 31 95
f 30 95 94
f 129 31 30
f 130 94 95
f 31 32 96
f 31 96 95
f 129 32 31
f 130 95 96
f 32 33 97
f 32 97 96
f 129 33 32
f 130 96 97
f 33 34 98
f 33 98 97
f 129 34 33
f 130 97 98
f 34 35 99
f 34 99 98
f 129 35 34
f 130 98 99
f 35 36 100
f 35 100 99
f 129 36 35
f 130 99 100
f 36 37 101
f 36 101 100
f 129 37 36
f 130 100 101
f 37 38 102
f 37 102 101
f 129 38 37
f 130 101 102
f 38 39 103
f 38 103 102
f 129 39 38
f 130 102 103
f 39 40 104
f 39 104 103
f 129 40 39
f 130 103 104
f 40 41 105
f 40 105 104
f 129 41 40
f 130 104 105
f 41 42 106
f 41 106 105
f 129 42 41
f 130 105 106
f 42 43 107
f 42 107 106
f 129 43 42
f 130 106 107
f 43 44 108
f 43 108 107
f 129 44 43
f 130 107 108
f 44 45 109
f 44 109 108
f 129 45 44
f 130 108 109
f 45 46 110
f 45 110 109
f 129 46 45
f 130 109 110
f 46 47 111
f 46 111 110
f 129 47 46
f 130 110 111
f 47 48 112
f 47 112 111
f 129 48 47
f 130 111 112
f 48 49 113
f 48 113 112
f 129 49 48
f 130 112 113
f 49 50 114
f 49 114 113
f 129 50 49
f 130 113 114
f 50 51 115
f 50 115 114
f 129 51 50
f 130 114 115
f 51 52 116
f 51 116 115
f 129 52 51
f 130 115 116
f 52 53 117
f 52 117 116
f 129 53 52
f 130 116 117
f 53 54 118
f 53 118 117
f 129 54 53
f 130 117 118
f 54 55 119
f 54 119 118
f 129 55 54
f 130 118 119
f 55 56 120
f 55 120 119
f 129 56 55
f 130 119 120
f 56 57 121
f 56 121 120
f 129 57 56
f 130 120 121
f 57 58 122
f 57 122 121
f 129 58 57
f 130 121 122
f 58 59 123
f 58 123 122
f 129 59 58
f 130 122 123
f 59 60 124
f 59 124 123
f 129 60 59
f 130 123 124
f 60 61 125
f 60 125 124
f 129 61 60
f 130 124 125
f 61 62 126
f 61 126 125
f 129 62 61
f 130 125 126
f 62 63 127
f 62 127 126
f 129 63 62
f 130 126 127
f 63 64 128
f 63 128 127
f 129 64 63
f 130 127 128
f 64 1 65
f 64 65 128
f 129 1 64
f 130 128 65
